<?xml version="1.0" standalone="no"?><svg xmlns="http://www.w3.org/2000/svg" viewBox="0 0 1440 320"><path fill="#4a178d" fill-opacity="1" d="M0,64L21.8,101.3C43.6,139,87,213,131,250.7C174.5,288,218,288,262,250.7C305.5,213,349,139,393,128C436.4,117,480,171,524,192C567.3,213,611,203,655,165.3C698.2,128,742,64,785,42.7C829.1,21,873,43,916,90.7C960,139,1004,213,1047,240C1090.9,267,1135,245,1178,208C1221.8,171,1265,117,1309,117.3C1352.7,117,1396,171,1418,197.3L1440,224L1440,320L1418.2,320C1396.4,320,1353,320,1309,320C1265.5,320,1222,320,1178,320C1134.5,320,1091,320,1047,320C1003.6,320,960,320,916,320C872.7,320,829,320,785,320C741.8,320,698,320,655,320C610.9,320,567,320,524,320C480,320,436,320,393,320C349.1,320,305,320,262,320C218.2,320,175,320,131,320C87.3,320,44,320,22,320L0,320Z"></path></svg>